[CENTER]
[IMG]http://imageshack.us/a/img13/2981/deep1007ripperbanner.png[/IMG][/CENTER]

[CENTER][IMG]http://img818.imageshack.us/img818/1356/qrz8.jpg[/IMG][/CENTER]

[CENTER][IMG]http://imageshack.us/a/img809/3244/deep1007mediainfo.png[/IMG][/CENTER]
[CENTER][Code]
General
Complete name                            : Chashme Baddoor (2013).mkv
Format                                   : Matroska
Format version                           : Version 2
File size                                : 393 MiB
Duration                                 : 2h 4mn
Overall bit rate                         : 442 Kbps
Writing application                      : Lavf53.6.0
Writing library                          : Lavf53.6.0

Video
ID                                       : 1
Format                                   : AVC
Format/Info                              : Advanced Video Codec
Codec ID                                 : V_MPEG4/ISO/AVC
Duration                                 : 2h 4mn
Width                                    : 1 280 pixels
Height                                   : 544 pixels
Display aspect ratio                     : 2.35:1
Frame rate mode                          : Constant
Frame rate                               : 50.000 fps
Bits/(Pixel*Frame)                       : 0.012
Stream size                              : 357 MiB (91%)
Default                                  : Yes
Forced                                   : No

Audio
ID                                       : 2
Format                                   : AC-3
Format/Info                              : Audio Coding 3
Mode extension                           : CM (complete main)
Format settings, Endianness              : Big
Codec ID                                 : A_AC3
Duration                                 : 2h 4mn
Bit rate mode                            : Constant
Bit rate                                 : 32.0 Kbps
Channel(s)                               : 2 channels
Channel positions                        : Front: L R
Sampling rate                            : 32.0 KHz
Bit depth                                : 16 bits
Compression mode                         : Lossy
Stream size                              : 28.5 MiB (7%)
Default                                  : Yes
Forced                                   : No
[/CODE][/CENTER]

[CENTER][IMG]http://imageshack.us/a/img844/7039/deep1007screenshots.png[/IMG][/CENTER]
[CENTER]
[URL=http://imgbox.com/abr91gSP][IMG]http://t.imgbox.com/abr91gSP.jpg[/IMG][/URL] [URL=http://imgbox.com/acvz2uMx][IMG]http://t.imgbox.com/acvz2uMx.jpg[/IMG][/URL] [URL=http://imgbox.com/acyK9cBn][IMG]http://t.imgbox.com/acyK9cBn.jpg[/IMG][/URL] [URL=http://imgbox.com/adk93JAS][IMG]http://t.imgbox.com/adk93JAS.jpg[/IMG][/URL] [URL=http://imgbox.com/acoSIW86][IMG]http://t.imgbox.com/acoSIW86.jpg[/IMG][/URL] [URL=http://imgbox.com/acn7SBWL][IMG]http://t.imgbox.com/acn7SBWL.jpg[/IMG][/URL] [URL=http://imgbox.com/acmk2ft1][IMG]http://t.imgbox.com/acmk2ft1.jpg[/IMG][/URL] [URL=http://imgbox.com/abk7rm7C][IMG]http://t.imgbox.com/abk7rm7C.jpg[/IMG][/URL] [URL=http://imgbox.com/acxLBb6A][IMG]http://t.imgbox.com/acxLBb6A.jpg[/IMG][/URL] [URL=http://imgbox.com/acoquYVF][IMG]http://t.imgbox.com/acoquYVF.jpg[/IMG][/URL] [URL=http://imgbox.com/abebfx4y][IMG]http://t.imgbox.com/abebfx4y.jpg[/IMG][/URL] [URL=http://imgbox.com/achCHnnc][IMG]http://t.imgbox.com/achCHnnc.jpg[/IMG][/URL] [URL=http://imgbox.com/adlUbPWF][IMG]http://t.imgbox.com/adlUbPWF.jpg[/IMG][/URL] [URL=http://imgbox.com/acjZqawt][IMG]http://t.imgbox.com/acjZqawt.jpg[/IMG][/URL] [URL=http://imgbox.com/adv5nBCv][IMG]http://t.imgbox.com/adv5nBCv.jpg[/IMG][/URL] [URL=http://imgbox.com/acdTanxE][IMG]http://t.imgbox.com/acdTanxE.jpg[/IMG][/URL] [URL=http://imgbox.com/adlGU8I7][IMG]http://t.imgbox.com/adlGU8I7.jpg[/IMG][/URL] [URL=http://imgbox.com/abp0N8uN][IMG]http://t.imgbox.com/abp0N8uN.jpg[/IMG][/URL] [URL=http://imgbox.com/aciDA2ZJ][IMG]http://t.imgbox.com/aciDA2ZJ.jpg[/IMG][/URL] [URL=http://imgbox.com/absYfSuv][IMG]http://t.imgbox.com/absYfSuv.jpg[/IMG][/URL] 
[/CENTER]
SAMPLE =-[/b][/SIZE][/COLOR][/URL][/CENTER]


[CENTER][COLOR="Purple"][SIZE="3"][b]Don't Forget To Say "Thanks"! And "Comment"! If You Like My Post![/b][/SIZE][/COLOR]
[COLOR="Green"][SIZE="3"][b]If You Don't Reply, This Post Will "Die"![/b][/SIZE][/COLOR]
[COLOR="Brown"][SIZE="3"][b]Check Sample Before "Commenting"![/b][/SIZE][/COLOR][/CENTER]
[CENTER][COLOR="Red"][SIZE="3"][b]~ FAST SEEDING ~[/b][/SIZE][/COLOR][/CENTER]

[quote="deep1007"]Please Seed After downloading...and maintain your Ratio!
If Any Mistake, Forgive Me...All Suggestions, Instructions, Orders By Admin ETC, Heartly Accepted...
If You Want Any Other, Please PM Me...[/quote]